<?xml version="1.0" encoding="utf-8"?>
<svg version="1.1" xmlns:xlink="http://www.w3.org/1999/xlink" width="13px" height="16px" xmlns="http://www.w3.org/2000/svg">
  <g transform="matrix(1 0 0 1 -28 -617 )">
    <path d="M 7.94444443880208 12.19555555  C 7.94444443880208 11.9822222166667  7.72777777213542 11.84  7.58333333333333 11.84  L 3.32222222786458 11.84  C 3.10555556119792 11.84  2.96111112239583 11.9822222166667  2.96111112239583 12.19555555  C 2.96111112239583 12.4088888833333  3.10555556119792 12.5511111  3.32222222786458 12.5511111  L 7.58333333333333 12.5511111  C 7.8 12.5511111  7.94444443880208 12.4088888833333  7.94444443880208 12.19555555  Z M 10.0388888945313 9.42222221666667  C 10.0388888945313 9.20888888333333  9.89444443880208 9.06666666666667  9.67777777213542 9.06666666666667  L 3.32222222786458 9.06666666666667  C 3.10555556119792 9.06666666666667  2.96111112239583 9.20888888333333  2.96111112239583 9.42222221666667  C 2.96111112239583 9.63555555  3.10555556119792 9.77777776666667  3.32222222786458 9.77777776666667  L 9.6777777890625 9.77777776666667  C 9.89444445572917 9.77777776666667  10.0388888945313 9.63555555  10.0388888945313 9.42222221666667  Z M 2.96111112239583 3.80444443333333  C 2.96111110546875 4.01777778333333  3.10555556119792 4.16  3.32222222786458 4.16  L 5.05555556119792 4.16  C 5.27222222786458 4.16  5.41666666666667 4.01777778333333  5.41666666666667 3.80444445  C 5.41666666666667 3.59111111666667  5.27222222786458 3.4488889  5.05555556119792 3.4488889  L 3.32222222786458 3.44888888333333  C 3.10555556119792 3.44888888333333  2.96111112239583 3.5911111  2.96111112239583 3.80444443333333  Z M 12.9277777721354 4.16  L 9.31666666666667 0.391111116666667  L 8.23333333333333 0.391111116666667  L 1.58888889453125 0.391111116666667  C 0.794444455729167 0.391111116666667  0.144444455729167 1.03111111666667  0.144444455729167 1.81333333333333  L 0.144444455729167 14.3288888833333  C 0.144444455729167 15.1111111  0.794444455729167 15.7511111  1.58888889453125 15.7511111  L 11.4833333333333 15.7511111  C 12.2777777721354 15.7511111  12.9277777721354 15.1111111  12.9277777721354 14.3288888833333  L 12.9277777721354 4.87111111666667  L 12.9277777721354 4.16  Z M 12.2055555611979 14.2577777833333  L 12.1333333333333 14.2577777833333  C 12.1333333333333 14.6133333333333  11.8444444388021 14.9688889  11.4111111054688 14.9688889  L 1.58888889453125 14.9688888833333  C 1.2277777890625 14.9688888833333  0.866666666666667 14.6844444333333  1 14.2577777666667  L 1 1.74222221666667  C 0.866666666666666 1.38666666666667  1.15555556119792 1.0311111  1.58888889453125 1.0311111  L 7.94444443880208 1.03111111666667  L 7.94444443880208 4.51555556666667  C 7.94444443880208 4.87111111666667  8.23333333333333 5.22666668333333  8.66666666666667 5.22666668333333  L 12.2055555611979 5.22666668333333  L 12.2055555611979 14.2577777833333  Z M 12.1333333164063 4.51555556666667  L 8.59444443880208 4.51555555  L 8.59444443880208 1.03111111666667  L 8.95555554427083 1.03111111666667  L 12.1333333164063 4.51555556666667  Z M 3.32222222786458 6.22222221666667  C 3.10555556119792 6.29333333333333  2.96111110546875 6.43555555  2.96111110546875 6.57777778333333  C 2.96111110546875 6.79111111666667  3.10555554427083 6.93333333333333  3.3222222109375 6.93333333333333  L 9.67777777213541 6.93333333333333  C 9.89444443880208 6.93333333333333  10.0388888776042 6.79111111666667  10.0388888776042 6.57777778333333  C 10.0388888776042 6.36444445  9.89444443880208 6.22222223333333  9.67777777213541 6.22222223333333  L 3.32222222786458 6.22222221666667  Z " fill-rule="nonzero" fill="#333333" stroke="none" transform="matrix(1 0 0 1 28 617 )" />
  </g>
</svg>