<?xml version="1.0" encoding="utf-8"?>
<svg version="1.1" xmlns:xlink="http://www.w3.org/1999/xlink" width="30px" height="30px" xmlns="http://www.w3.org/2000/svg">
  <g transform="matrix(1 0 0 1 -20 -8 )">
    <path d="M 30 15.3816964285714  C 30 6.890625  23.2834821428571 0  15 0  C 6.71651785714286 0  0 6.890625  0 15.3816964285714  C 0 22.1785714285714  4.29910714285714 27.9375  10.2589285714286 29.9732142857143  C 10.3526785714286 29.9933035714286  10.4330357142857 30  10.5133928571429 30  C 11.0691964285714 30  11.2834821428571 29.5915178571429  11.2834821428571 29.2366071428571  C 11.2834821428571 28.8683035714286  11.2700892857143 27.9040178571429  11.2633928571429 26.6183035714286  C 10.7008928571429 26.7455357142857  10.1986607142857 26.7991071428571  9.75 26.7991071428571  C 6.86383928571429 26.7991071428571  6.20758928571429 24.5558035714286  6.20758928571429 24.5558035714286  C 5.52455357142857 22.78125  4.54017857142857 22.3058035714286  4.54017857142857 22.3058035714286  C 3.234375 21.3883928571429  4.53348214285714 21.3616071428571  4.63392857142857 21.3616071428571  L 4.640625 21.3616071428571  C 6.14732142857143 21.4955357142857  6.9375 22.9553571428571  6.9375 22.9553571428571  C 7.6875 24.2678571428571  8.69196428571428 24.6361607142857  9.58928571428571 24.6361607142857  C 10.2924107142857 24.6361607142857  10.9285714285714 24.4084821428571  11.3035714285714 24.234375  C 11.4375 23.2433035714286  11.8258928571429 22.5669642857143  12.2544642857143 22.1785714285714  C 8.92633928571428 21.7901785714286  5.42410714285714 20.4709821428571  5.42410714285714 14.578125  C 5.42410714285714 12.8973214285714  6.00669642857143 11.5245535714286  6.96428571428571 10.453125  C 6.81026785714285 10.0647321428571  6.29464285714285 8.49776785714286  7.11160714285714 6.38169642857143  C 7.11160714285714 6.38169642857143  7.21874999999999 6.34821428571428  7.44642857142857 6.34821428571428  C 7.98883928571428 6.34821428571428  9.21428571428571 6.55580357142857  11.2366071428571 7.96205357142857  C 12.4352678571429 7.62053571428572  13.7142857142857 7.453125  14.9933035714286 7.44642857142857  C 16.265625 7.453125  17.5513392857143 7.62053571428572  18.75 7.96205357142857  C 20.7723214285714 6.55580357142857  21.9977678571429 6.34821428571429  22.5401785714286 6.34821428571429  C 22.7678571428571 6.34821428571429  22.875 6.38169642857143  22.875 6.38169642857143  C 23.6919642857143 8.49776785714286  23.1763392857143 10.0647321428571  23.0223214285714 10.453125  C 23.9799107142857 11.53125  24.5625 12.9040178571429  24.5625 14.578125  C 24.5625 20.484375  21.0535714285714 21.7834821428571  17.7120535714286 22.1651785714286  C 18.2477678571429 22.640625  18.7299107142857 23.578125  18.7299107142857 25.0111607142857  C 18.7299107142857 27.0669642857143  18.7098214285714 28.7276785714286  18.7098214285714 29.2299107142857  C 18.7098214285714 29.5915178571429  18.9174107142857 30  19.4732142857143 30  C 19.5535714285714 30  19.6473214285714 29.9933035714286  19.7410714285714 29.9732142857143  C 25.7075892857143 27.9375  30 22.171875  30 15.3816964285714  Z " fill-rule="nonzero" fill="#106ebe" stroke="none" transform="matrix(1 0 0 1 20 8 )" />
  </g>
</svg>