<?xml version="1.0" encoding="utf-8"?>
<svg version="1.1" xmlns:xlink="http://www.w3.org/1999/xlink" width="24px" height="24px" xmlns="http://www.w3.org/2000/svg">
  <g transform="matrix(1 0 0 1 -1886 -11 )">
    <path d="M 24 12.0830027225752  C 24 5.51257710399163  18.6539268515625 0.166005445150385  12.0830027109375 0.166005445150385  C 5.51207859375 0.166005445150385  0.166005421874999 5.51257710399162  0.166005421874999 12.0830027225752  C 0.166005421874999 18.6534283411588  5.5125770859375 24  12.0830027109375 24  C 18.6534283359375 24  24 18.6534283411588  24 12.0830027225752  Z M 23.011943578125 12.0830026991377  C 23.011943578125 18.1095486151274  18.1095486328125 23.0124420712769  12.0830027109375 23.0124420712769  C 6.0564567890625 23.0124420712769  1.15406184375 18.1095486151274  1.15406184375 12.0830026991377  C 1.15406184375 6.05645678314799  6.0564567890625 1.15356332699847  12.0830027109375 1.15356332699847  C 18.1095486328125 1.15356332699847  23.011943578125 6.05645678314799  23.011943578125 12.0830026991377  Z M 18.4181293125 18.1788421931847  C 18.4171323046875 15.500321937988  16.75308975 13.211640315223  14.404087828125 12.2853997380025  C 15.5232536484375 11.5361319262342  16.2610556015625 10.26043245873  16.2610556015625 8.81224684295679  C 16.2610556015625 6.50512016552234  14.39062790625 4.63469247203643  12.0835012265625 4.63469247203643  C 9.776374546875 4.63469247203643  7.9059468515625 6.50512016552234  7.9059468515625 8.81224684295679  C 7.9059468515625 10.2609309743546  8.643748828125 11.5361319262342  9.763413140625 12.2853997380025  C 7.4134141875 13.211640315223  5.7498701484375 15.500321937988  5.7498701484375 18.1788421931847  C 5.7498701484375 18.1843258650544  5.7498701484375 18.189310997862  5.7503686640625 18.1942961541071  C 5.7503686640625 18.1952931853562  5.7498701484375 18.1967887322297  5.7498701484375 18.1977857634787  C 5.7498701484375 18.5636956459339  6.0464864765625 18.8598134815822  6.4123963828125 18.8598134815822  C 6.77780775 18.8598134815822  6.9253681640625 18.5636956693714  6.9253681640625 18.1977857634787  C 6.9253681640625 18.189809536924  6.9233741015625 18.1823318025563  6.9228755859375 18.1738570603771  C 6.9253681640625 15.408096734953  9.317242359375 13.0177180654124  12.0839997421875 13.0177180654124  C 14.8522526484375 13.0177180654124  17.2451238984375 15.4105892896381  17.2451238984375 18.1788422166222  C 17.2451238984375 18.1823318259938  17.2107263671875 18.8598134815822  17.76008971875 18.8598134815822  C 18.123507046875 18.8598134815822  18.4181293125 18.5651912162449  18.4181293125 18.2022724040993  C 18.4181293125 18.2007768572258  18.417630796875 18.1992813103523  18.417630796875 18.1972872478542  C 18.417630796875 18.1913050603601  18.4181293125 18.1853228963034  18.4181293125 18.1788421931847  Z M 15.2405957109375 8.8127453585813  C 15.2405957109375 10.5565502709409  13.826807625 11.9703383554977  12.0830027109375 11.9703383554977  C 10.339197796875 11.9703383554977  8.9254097109375 10.5565502709409  8.9254097109375 8.8127453585813  C 8.9254097109375 7.06844193059722  10.339197796875 5.65515236166489  12.0830027109375 5.65515236166489  C 13.827306140625 5.65515236166489  15.2405957109375 7.06894044622174  15.2405957109375 8.8127453585813  Z " fill-rule="nonzero" fill="#333333" stroke="none" transform="matrix(1 0 0 1 1886 11 )" />
  </g>
</svg>