<?xml version="1.0" encoding="utf-8"?>
<svg version="1.1" xmlns:xlink="http://www.w3.org/1999/xlink" width="15px" height="14px" xmlns="http://www.w3.org/2000/svg">
  <g transform="matrix(1 0 0 1 -27 -498 )">
    <path d="M 13.76625 0.267904  L 1.23375 0.267904  C 0.553125 0.267904  0 0.818496  0 1.49617066666667  L 0 12.503904  C 0 13.181504  0.553125 13.7321706666667  1.23375 13.7321706666667  L 13.765275 13.7321706666667  C 14.4459 13.7321706666667  14.999025 13.1805333333333  15 12.503904  L 15 1.496096  C 15 0.818421333333333  14.4459 0.267829333333333  13.76625 0.267829333333333  Z M 14 12.5037546666667  L 14.005275 12.503904  C 14.005275 12.6354666666667  13.8975 12.7428373333333  13.765275 12.7428373333333  L 1.23375 12.7428373333333  C 1.10130437138655 12.7425907942366  0.993997639717664 12.6357609813752  1 12.503904  L 1 1.496096  C 0.99375 1.36445866666667  1.1016 1.25716266666667  1.23375 1.25716266666667  L 13.76535 1.25716266666667  C 13.8975 1.25716266666667  14.00535 1.36445866666667  14 1.496096  L 14 12.5037546666667  Z M 1.84125 10.2517333333333  L 4.514025 8.25723733333333  L 6.025275 9.76177066666667  L 12.94125 2.877504  L 12.377775 2.31653333333333  L 6.025275 8.64266666666667  L 4.589025 7.211904  L 1.364025 9.61893333333333  L 1.84125 10.2517333333333  Z M 1.603125 12  L 1.603125 11.3745706666667  L 13.396875 11.3745706666667  L 13.396875 12  L 1.603125 12  Z " fill-rule="nonzero" fill="#333333" stroke="none" transform="matrix(1 0 0 1 27 498 )" />
  </g>
</svg>