<?xml version="1.0" encoding="utf-8"?>
<svg version="1.1" xmlns:xlink="http://www.w3.org/1999/xlink" width="15px" height="12px" xmlns="http://www.w3.org/2000/svg">
  <g transform="matrix(1 0 0 1 -28 -819 )">
    <path d="M 1.85429129464286 0.133328125  L 13.1457087053571 0.133328125  C 13.9536328125 0.133328125  14.6085770089286 0.74571875  14.6085770089286 1.501140625  L 14.6085770089286 8.639421875  C 14.6085770089286 9.394828125  13.9536328125 10.007234375  13.1457087053571 10.007234375  L 8.0028515625 10.007203125  L 8.0028515625 10.96896875  L 12.1400055803571 10.96896875  L 12.1400055803571 11.909328125  L 2.85999441964286 11.909328125  L 2.85999441964286 10.96896875  L 6.9971484375 10.96896875  L 6.9971484375 10.0071875  L 1.85429129464286 10.007203125  C 1.0463671875 10.007203125  0.391422991071428 9.3948125  0.391422991071428 8.639390625  L 0.391422991071428 1.501140625  C 0.391422991071428 0.74571875  1.0463671875 0.133328125  1.85429129464286 0.133328125  Z M 13.6028571428571 1.501140625  C 13.6028571428571 1.265078125  13.3981808035714 1.073703125  13.1457087053571 1  L 1.85429129464286 1  C 1.60181919642857 1.073703125  1.39714285714286 1.265078125  1.39714285714286 1.501140625  L 1.39714285714286 8.639421875  C 1.39714285714286 8.875484375  1.60181919642857 9.06684375  1.85429129464286 9  L 13.1457087053571 9  C 13.3981808035714 9.06684375  13.6028571428571 8.875484375  13.6028571428571 8.63940625  L 13.6028571428571 1.501140625  Z M 9.03006696428572 5.23646875  L 10.9285714285714 3.461328125  L 11.6397321428571 4.12628125  L 9.7412109375 5.90140625  C 9.1163671875 6.48565625  8.10331473214286 6.48565625  7.47848772321429 5.90140625  L 6.59578125 5.076078125  C 6.36369977678572 4.8590625  5.98741071428571 4.8590625  5.75532924107143 5.076078125  L 4.02827008928571 6.690921875  L 3.31712611607143 6.025984375  L 5.04418526785715 4.411140625  C 5.66902901785715 3.826890625  6.68208147321429 3.826890625  7.30692522321429 4.411140625  L 8.18961495535714 5.23646875  C 8.42169642857143 5.45346875  8.79798549107143 5.45346875  9.03006696428572 5.23646875  Z " fill-rule="nonzero" fill="#333333" stroke="none" transform="matrix(1 0 0 1 28 819 )" />
  </g>
</svg>