<?xml version="1.0" encoding="utf-8"?>
<svg version="1.1" xmlns:xlink="http://www.w3.org/1999/xlink" width="12px" height="14px" xmlns="http://www.w3.org/2000/svg">
  <g transform="matrix(1 0 0 1 -28 -58 )">
    <path d="M 11.9757944195122 12.3707921795122  C 11.975778435122 13.2494120897561  11.247413057561 13.9618031453659  10.3687931473171 13.9618031453659  L 1.61514981463415 13.9618031453659  C 0.736497966829269 13.9618031453659  0.0241068956097563 13.2494120897561  0.0241068956097563 12.3707921795122  L 0.0241068956097563 4.01812041365854  C 0.0241068956097563 3.13946856585366  0.736497951219512 2.42706152585366  1.61514981463415 2.42706152585366  L 2.41059139121951 2.42706152585366  C 2.41059139121951 1.5484576  3.61628562731707 0.00861240195121971  5.9919874497561 0.00861240195121971  C 8.55454097170732 0.00861240195121971  9.57333558634146 1.5484576  9.57333558634146 2.42706152585366  L 10.3847834380488 2.42706152585366  C 11.2634033326829 2.42706152585366  11.9757944039024 3.13945258146341  11.9757944039024 4.01812041365854  L 11.9757944195122 12.3707921795122  Z M 8.77783011902439 2.42707749463415  C 8.77783011902439 1.8778641795122  8.06379370146341 0.804117884878049  5.99197148097561 0.804117884878049  C 3.80024597853659 0.804117884878049  3.20611285853659 1.8778641795122  3.20611285853659 2.42707749463415  L 8.77783011902439 2.42707749463415  Z M 11.1802410146341 4.01810442926829  C 11.1802410146341 3.57876253658537  10.8240614556098 3.22256699317073  10.384767484878 3.22256699317073  L 9.57328768 3.22256699317073  L 9.57328768 5.60908344195122  L 8.77778219707317 5.60908344195122  L 8.77778218146342 3.22256700878049  L 3.20609687414634 3.22256700878049  L 3.20609687414634 5.60908345756098  L 2.41054346926829 5.60908345756098  L 2.41054346926829 3.22256700878049  L 1.61510189268293 3.22256700878049  C 1.17574401560976 3.22256700878049  0.819564456585365 3.57876253658537  0.819564456585365 4.01810444487805  L 0.819564456585365 10.7798291512195  L 11.1802250302439 10.7798291512195  L 11.1802250302439 4.01810442926829  Z M 11.1802410146341 11.5753186497561  L 0.819596409756097 11.5753186497561  L 0.819596409756097 12.3707602263415  C 0.819596409756097 12.8101181034146  1.17577596878049 13.1663296  1.61513384585366 13.1663296  L 10.3847515160976 13.1663296  C 10.82407744 13.1663296  11.1802569990244 12.8101180878049  11.1802569990244 12.3707602263415  L 11.1802569834146 11.5753186497561  Z " fill-rule="nonzero" fill="#333333" stroke="none" transform="matrix(1 0 0 1 28 58 )" />
  </g>
</svg>