<?xml version="1.0" encoding="utf-8"?>
<svg version="1.1" xmlns:xlink="http://www.w3.org/1999/xlink" width="14px" height="14px" xmlns="http://www.w3.org/2000/svg">
  <g transform="matrix(1 0 0 1 -27 -458 )">
    <path d="M 2.1 0  L 9.45 0  C 10.607975 0  11.55 0.942025000000012  11.55 2.10000000000001  L 11.5500027954351 4.58300182347086  C 13.0174645738428 5.47348911451536  14 7.0866419192561  14 8.92499999999999  C 14 11.72325  11.72325 14  8.925 14  L 2.1 14  C 0.942024999999999 14  0 13.057975  0 11.9  L 0 2.10000000000001  C 0 0.942025000000012  0.942024999999999 0  2.1 0  Z M 6.0790519905368 13.1250005904383  C 4.73471811041414 12.2111510525709  3.85 10.6694076797575  3.85 8.92499999999999  C 3.85 6.126575  6.126575 3.85000000000001  8.925 3.85000000000001  C 9.60599330578633 3.85000000000001  10.2561002341943 3.98483251117936  10.85 4.2292581209228  L 10.85 2.10000000000001  C 10.85 1.32807499999999  10.221925 0.70000000000001  9.45 0.875  L 2.1 0.875  C 1.328075 0.70000000000001  0.700000000000001 1.32807499999999  0.875 2.10000000000001  L 0.875 11.9  C 0.700000000000001 12.671925  1.328075 13.3  2.1 13.125  L 6.0790519905368 13.1250005904383  Z M 13.3 8.92499999999999  C 13.3 6.51262500000001  11.337375 4.54999999999999  8.925 4.54999999999999  C 6.512625 4.54999999999999  4.55 6.51262500000001  4.55 8.92499999999999  C 4.55 10.9117216417397  5.88113386906475 12.5934041355974  7.69835693356783 13.125  L 8.925 13.125  C 8.925 13.3  8.925 13.3  8.925 13.3  C 11.337375 13.3  13.3 11.337375  13.3 8.92499999999999  Z M 1.75 6.47500000000001  C 1.75 6.28170033755922  1.90670033755922 6.125  2.1 6.125  L 2.8 6.125  C 2.99329966244078 6.125  3.15 6.28170033755922  3.15 6.47500000000001  C 3.15 6.66829966244077  2.99329966244078 6.82500000000001  2.8 6.82500000000001  L 2.1 6.82500000000001  C 1.90670033755922 6.82500000000001  1.75 6.66829966244077  1.75 6.47500000000001  Z M 1.75 2.97500000000001  C 1.75 2.78170033755922  1.90670033755922 2.625  2.1 2.625  L 5.25 2.625  C 5.44329966244078 2.625  5.6 2.78170033755922  5.6 2.97500000000001  C 5.6 3.16829966244077  5.44329966244078 3.32500000000001  5.25 3.32500000000001  L 2.1 3.32500000000001  C 1.90670033755922 3.32500000000001  1.75 3.16829966244077  1.75 2.97500000000001  Z M 10.0569 10.05725  L 9.85005 10.829875  L 10.311 11.291  C 10.3763166039029 11.3566511695377  10.4129830949065 11.445492696936  10.4129830949065 11.5381011998236  C 10.4129830949065 11.7312361847705  10.2566843235286 11.887944544166  10.06355 11.88845  C 9.9706481786727 11.8885925009681  9.88152464913982 11.8516833926245  9.815925 11.7859  L 9.21235 11.181975  C 9.12405882557962 11.0934719988499  9.08958501930581 10.9646453185385  9.121875 10.843875  L 9.4332 9.68082500000001  C 9.4655683838309 9.56006666088332  9.55989166088331 9.46574338383089  9.68065 9.43337500000001  L 10.8437 9.12187500000001  C 10.9645015681411 9.08951760208749  11.0933889889084 9.12407437432219  11.1818 9.21252500000001  L 11.785375 9.81627500000001  C 11.8536609012084 9.88222773017718  11.8922258720046 9.97309048912941  11.8922258720046 10.0680258720046  C 11.8922258720046 10.2613255344454  11.7355255344454 10.4180258720046  11.5422258720046 10.4180258720046  C 11.4472904891294 10.4180258720046  11.3564277301772 10.3794609012084  11.290475 10.311175  L 10.8297 9.85022499999999  L 10.0569 10.05725  Z M 8.7283 7.006125  L 8.416975 8.16917499999999  C 8.3846066161691 8.28993333911669  8.29028333911669 8.38425661616909  8.169525 8.416625  L 7.006475 8.728125  C 6.97684812003928 8.7360336056343  6.94631427848332 8.74003418603083  6.91565 8.74002499999999  C 6.82283181528241 8.74000517690808  6.73382245597511 8.70311728118384  6.6682 8.63747499999999  L 6.06445 8.033725  C 5.99616409879164 7.9677722698228  5.95759912799539 7.8769095108706  5.95759912799539 7.78197412799539  C 5.95759912799539 7.58867446555461  6.11429946555461 7.43197412799539  6.30759912799539 7.43197412799539  C 6.40253451087059 7.43197412799539  6.49339726982282 7.47053909879165  6.55935 7.53882500000001  L 7.0203 7.99977499999999  L 7.7931 7.79275000000001  L 7.99995 7.020125  L 7.539 6.55900000000001  C 7.47344084172818 6.49337127063698  7.43661593292995 6.40440135800036  7.43661593292995 6.3116375  C 7.43661593292995 6.1183328299547  7.59332032995471 5.96162843292995  7.786625 5.96162843292995  C 7.87951749775274 5.96162843292995  7.96859992793841 5.99855526036989  8.03425 6.064275  L 8.637825 6.6682  C 8.72615059808615 6.75661099251425  8.76063453605708 6.88540883433607  8.7283 7.006125  Z M 9.3810968017893 9.87550138384577  L 7.97423424943938 8.46892977520281  L 8.169525 8.416625  C 8.29028333911669 8.38425661616909  8.3846066161691 8.28993333911669  8.416975 8.16917499999999  L 8.46919502840206 7.97409042219465  L 9.87635856907587 9.38095832034983  L 9.68065 9.43337500000001  C 9.55989166088331 9.46574338383089  9.4655683838309 9.56006666088332  9.4332 9.68082500000001  L 9.3810968017893 9.87550138384577  Z " fill-rule="nonzero" fill="#333333" stroke="none" transform="matrix(1 0 0 1 27 458 )" />
  </g>
</svg>