<?xml version="1.0" encoding="utf-8"?>
<svg version="1.1" xmlns:xlink="http://www.w3.org/1999/xlink" width="14px" height="16px" xmlns="http://www.w3.org/2000/svg">
  <g transform="matrix(1 0 0 1 -27 -257 )">
    <path d="M 13.5572649591346 3.02222221666668  C 13.5572649591346 2.81679011666665  13.4296296346154 2.64296295000001  13.2381766394231 2.57975308333334  L 7.15954415144231 0.446419750000011  C 7.09572648076923 0.430617283333322  7.04786324038462 0.414814816666664  7 0.414814816666664  C 6.95213675961538 0.414814816666664  6.90427350240385 0.430617283333322  6.84045584855769 0.446419750000011  L 0.745868947115384 2.56395061666666  C 0.554415951923076 2.62716049999999  0.426780627403847 2.81679011666665  0.426780627403847 3.00641974999999  L 0.426780627403847 8  C 0.426780627403847 12.0928395  5.65982906730769 14.9688888833333  6.77663817788462 15.5219753166667  C 6.84045584855769 15.55358025  6.92022791586538 15.5693827166667  6.98404558653846 15.5693827166667  C 7.04786325721154 15.5693827166667  7.12763532451923 15.55358025  7.19145299519231 15.5219753166667  C 8.30826210576923 14.9688889  13.5572649591346 12.0928395166667  13.5572649591346 8  L 13.5572649591346 3.02222221666668  Z M 6.98404558653846 14.5738271666667  C 5.80341880528846 13.9417284  1.38404558653846 11.3501234666667  1.38404558653846 8  L 1.38404558653846 3.33827160000001  L 7 1.39456790000001  L 12.6 3.35407406666667  L 12.6 8.01580246666666  C 12.6 11.3975308666667  8.18062678125 13.9417284  6.98404558653846 14.5738271666667  Z M 6.52137825413774 8.47407406666668  L 6.52136752884615 11.1604938333333  C 6.52136752884615 11.2553086333333  6.58518518269231 11.3185185166667  6.68091168028846 11.3185185166667  L 7.31908831971154 11.3185185166667  C 7.41481480048077 11.3185185166667  7.47863247115385 11.25530865  7.47863247115385 11.1604938333333  L 7.47863247115385 8.47407406676472  L 10.1908831971154 8.47407406666668  C 10.2706552644231 8.47407406666668  10.3504273485577 8.39506173333333  10.3504273485577 8.31604938333333  L 10.3504273485577 7.68395061666667  C 10.3504273485577 7.60493828333335  10.2866096947115 7.52592593333332  10.1908831971154 7.52592593333332  L 7.47862174586226 7.52592593333332  L 7.47863247115385 4.83950616666668  C 7.47863247115385 4.76049383333332  7.39886040384615 4.68148148333333  7.31908831971154 4.68148148333333  L 6.68091168028846 4.68148148333333  C 6.60113961298077 4.68148148333333  6.52136752884615 4.76049381666665  6.52136752884615 4.83950616666668  L 6.52136752884615 7.52592593323528  L 3.80911680288462 7.52592593333332  C 3.72934473557692 7.52592593333332  3.64957265144231 7.60493826666667  3.64957265144231 7.68395061666667  L 3.64957265144231 8.31604938333333  C 3.64957265144231 8.39506171666665  3.72934471875 8.47407406666668  3.80911680288462 8.47407406666668  L 6.52137825413774 8.47407406666668  Z " fill-rule="nonzero" fill="#333333" stroke="none" transform="matrix(1 0 0 1 27 257 )" />
  </g>
</svg>