<?xml version="1.0" encoding="utf-8"?>
<svg version="1.1" xmlns:xlink="http://www.w3.org/1999/xlink" width="15px" height="14px" xmlns="http://www.w3.org/2000/svg">
  <g transform="matrix(1 0 0 1 -28 -858 )">
    <path d="M 2.01931034482758 0.5  C 1.07586206896552 0.351999999999975  0.355862068965518 1.05599999999998  0.517241379310345 1.95999999999998  L 0.517241379310345 12.04  C 0.355862068965518 12.952  1.07586206896552 13.648  2.01931034482758 13.5  L 7.67172413793103 13.5  C 7.88689655172414 13.648  8.05241379310345 13.4  8.05241379310345 13.192  C 8.05241379310345 12.984  7.89517241379311 12.728  7.67172413793103 12.5  L 2.25931034482759 12.5  C 1.75448275862069 12.728  1.31586206896552 12.528  1.55172413793103 12.04  L 1.55172413793103 1.95999999999998  C 1.31586206896552 1.47199999999998  1.73793103448276 1.27199999999999  2.24275862068965 1.5  L 10.1131034482759 1.5  C 10.6179310344828 1.27199999999999  10.8331034482759 1.48000000000002  10.8331034482759 1.96800000000002  L 10.8331034482759 5.75200000000001  C 10.8331034482759 5.95999999999998  11.0979310344828 6.08800000000002  11.3131034482759 6.08800000000002  C 11.528275862069 6.08800000000002  11.7931034482759 5.95999999999998  11.7931034482759 5.75200000000001  L 11.7931034482759 1.95999999999998  C 11.7931034482759 1.048  11.0648275862069 0.351999999999975  10.1296551724138 0.5  L 2.01931034482758 0.5  Z M 14.8386206896552 10.36  C 14.8386206896552 8.54399999999998  13.3158620689655 7.072  11.4372413793103 7.072  C 9.55862068965517 7.072  8.03586206896552 8.54399999999998  8.03586206896552 10.36  C 8.03586206896552 12.176  9.5503448275862 13.648  11.4372413793103 13.648  C 13.3241379310345 13.648  14.8386206896552 12.176  14.8386206896552 10.36  Z M 14.1186206896552 10.36  C 14.1186206896552 11.76  12.96 12.952  11.4372413793103 12.952  C 9.98896551724138 12.952  8.75586206896552 11.832  8.75586206896552 10.36  C 8.75586206896552 8.95999999999998  9.98896551724138 7.76800000000003  11.4372413793103 7.76800000000003  C 12.8855172413793 7.76800000000003  14.1186206896552 8.88799999999998  14.1186206896552 10.36  Z M 9.47586206896552 3  L 2.67310344827586 3  C 2.45793103448276 3.00799999999998  2.30896551724138 3.15199999999999  2.30896551724138 3.36000000000001  C 2.30896551724138 3.56799999999998  2.4496551724138 3.71199999999999  2.67310344827586 3.71199999999999  L 9.47586206896552 3.71199999999999  C 9.69103448275862 3.71199999999999  9.84 3.56799999999998  9.84 3.36000000000001  C 9.84 3.15199999999999  9.69103448275862 3.00799999999998  9.47586206896552 3  Z M 2.67310344827586 10.992  L 5.35448275862069 10.992  C 5.56965517241379 10.992  5.71862068965517 10.848  5.71862068965517 10.64  C 5.71862068965517 10.432  5.56965517241379 10.288  5.35448275862069 10.288  L 2.67310344827586 10.288  C 2.45793103448276 10.288  2.30896551724138 10.432  2.30896551724138 10.64  C 2.30896551724138 10.848  2.45793103448276 10.992  2.67310344827586 10.992  Z M 2.67310344827586 8.54399999999998  L 6.57931034482759 8.54399999999998  C 6.79448275862069 8.54399999999998  6.94344827586207 8.39999999999998  6.94344827586207 8.19200000000001  C 6.94344827586207 7.98399999999998  6.80275862068966 7.83999999999997  6.57931034482759 7.83999999999997  L 2.67310344827586 7.83999999999997  C 2.45793103448276 7.83999999999997  2.30896551724138 7.98399999999998  2.30896551724138 8.19200000000001  C 2.30896551724138 8.39999999999998  2.45793103448276 8.54399999999998  2.67310344827586 8.54399999999998  Z M 2.67310344827586 6.16000000000003  L 9.47586206896552 6.16000000000003  C 9.69103448275862 6.16000000000003  9.84 6.01600000000002  9.84 5.80799999999999  C 9.84 5.60000000000002  9.69931034482759 5.45600000000002  9.47586206896552 5.5  L 2.67310344827586 5.5  C 2.45793103448276 5.45600000000002  2.30896551724138 5.60000000000002  2.30896551724138 5.80799999999999  C 2.30896551724138 6.01600000000002  2.45793103448276 6.16000000000003  2.67310344827586 6.16000000000003  Z M 11.0731034482759 8.81599999999997  L 11.0731034482759 11.056  L 12.96 11.056  C 13.1006896551724 11.064  13.2496551724138 10.92  13.2496551724138 10.712  C 13.2496551724138 10.504  13.1006896551724 10.36  12.8855172413793 10.36  L 11.8013793103448 10.36  L 11.8013793103448 8.81599999999997  C 11.8013793103448 8.608  11.6524137931034 8.464  11.4372413793103 8.464  C 11.2220689655172 8.464  11.0731034482759 8.608  11.0731034482759 8.81599999999997  Z " fill-rule="nonzero" fill="#333333" stroke="none" transform="matrix(1 0 0 1 28 858 )" />
  </g>
</svg>