<?xml version="1.0" encoding="utf-8"?>
<svg version="1.1" xmlns:xlink="http://www.w3.org/1999/xlink" width="15px" height="14px" xmlns="http://www.w3.org/2000/svg">
  <g transform="matrix(1 0 0 1 -27 -178 )">
    <path d="M 13.6575721153846 2.41901041666666  L 13.6575721153846 14  L 7.93269230769231 14  L 7.08881453683284 14  L 1.34242788461539 14  L 1.34242788461539 0  L 7.93269230769231 0  L 7.93269230770045 2.41901041666666  L 13.6575721153846 2.41901041666666  Z M 2.30769230769231 13.1153385416667  L 7 13.1153385416667  L 7 0.917656250000003  L 2.30769230769231 0.917656250000003  L 2.30769230769231 13.1153385416667  Z M 8.07692307692308 13.1153385416667  L 12.6923076923077 13.1153385416667  L 12.6923076923077 3.29401041666666  L 8.07692307692308 3.29401041666666  L 8.07692307692308 13.1153385416667  Z M 14.7115384615385 13  L 14.7115384615385 14  L 0.288461538461538 14  L 0.288461538461538 13  L 14.7115384615385 13  Z M 3.13431490384615 2.76591145833333  L 6.14080528846154 2.76591145833333  L 6.14080528846154 3.64091145833333  L 3.13431490384615 3.64091145833333  L 3.13431490384615 2.76591145833333  Z M 3.13431490384615 5.12403645833334  L 6.14080528846154 5.12403645833334  L 6.14080528846154 5.99903645833334  L 3.13431490384615 5.99903645833334  L 3.13431490384615 5.12403645833334  Z M 3.13431490384615 7.48216145833333  L 6.14080528846154 7.48216145833333  L 6.14080528846154 8.35716145833333  L 3.13431490384615 8.35716145833333  L 3.13431490384615 7.48216145833333  Z M 3.13431490384615 9.84028645833332  L 6.14080528846154 9.84028645833332  L 6.14080528846154 10.7152864583333  L 3.13431490384615 10.7152864583333  L 3.13431490384615 9.84028645833332  Z M 8.85919471153846 4.21841145833333  L 11.8656850961538 4.21841145833333  L 11.8656850961538 5.09341145833333  L 8.85919471153846 5.09341145833333  L 8.85919471153846 4.21841145833333  Z M 8.85919471153846 6.57653645833334  L 11.8656850961538 6.57653645833334  L 11.8656850961538 7.45153645833334  L 8.85919471153846 7.45153645833334  L 8.85919471153846 6.57653645833334  Z M 8.85919471153846 8.93466145833333  L 11.8656850961538 8.93466145833333  L 11.8656850961538 9.80966145833333  L 8.85919471153846 9.80966145833333  L 8.85919471153846 8.93466145833333  Z M 8.85919471153846 11.29296875  L 11.8656850961538 11.29296875  L 11.8656850961538 12.16796875  L 8.85919471153846 12.16796875  L 8.85919471153846 11.29296875  Z " fill-rule="nonzero" fill="#333333" stroke="none" transform="matrix(1 0 0 1 27 178 )" />
  </g>
</svg>