<?xml version="1.0" encoding="utf-8"?>
<svg version="1.1" xmlns:xlink="http://www.w3.org/1999/xlink" width="15px" height="14px" xmlns="http://www.w3.org/2000/svg">
  <g transform="matrix(1 0 0 1 -28 -138 )">
    <path d="M 0.375 11.9  L 0.375 2.1  C 0.375 1.2301515190165  1.07240260122511 0.525  1.93269230769231 0.525  L 13.1394230769231 0.525  C 13.9997127833903 0.525000000000001  14.6971153846154 1.2301515190165  14.6971153846154 2.1  L 14.6971153846154 11.9  C 14.6971153846154 12.7698484809835  13.9997127833903 13.475  13.1394230769231 13.475  L 1.93269230769231 13.475  C 1.07240260122511 13.475  0.375 12.7698484809835  0.375 11.9  Z M 13.1394230769231 1.225  L 1.93269230769231 1.225  C 1.4547535818772 1.225  1.06730769230769 1.61675084389806  1.06730769230769 2.1  L 1.06730769230769 11.9  C 1.06730769230769 12.3832491561019  1.4547535818772 12.775  1.93269230769231 12.775  L 13.1394230769231 12.775  C 13.6173618027382 12.775  14.0048076923077 12.3832491561019  14.0048076923077 11.9  L 14.0048076923077 2.1  C 14.0048076923077 1.61675084389806  13.6173618027382 1.225  13.1394230769231 1.225  Z M 6.1298076540108 3.48541666666667  C 5.12613632979907 3.48541666666667  4.3124999617031 4.30809343885258  4.3124999617031 5.32291666666667  C 4.3124999617031 6.33773989448075  5.12613632979907 7.16041666666667  6.1298076540108 7.16041666666667  C 7.13347901651942 7.16041666666667  7.94711538461539 6.33773989448075  7.94711538461539 5.32291666666667  C 7.94711538461539 4.30809343885258  7.13347901651942 3.48541666666667  6.12980769230769 3.48541666666667  Z M 4.83836538461538 7.49904166666667  C 4.0823122592551 7.04051662848949  3.61982650578866 6.21433943796725  3.62019230769231 5.32291666666667  C 3.62040637488493 3.92164719519228  4.74393673998244 2.78580861911512  6.12980766236907 2.78580861911512  C 7.51582996723289 2.78580861911512  8.63942304698445 3.92188606641948  8.63942304698445 5.32330861911512  C 8.63942304698445 6.21453055202392  8.17701459088148 7.04042089814596  7.42125 7.49904166666667  C 8.64101836315039 8.02273517653726  9.43298555119738 9.23301504926745  9.43269230769231 10.5729166666667  C 9.43269230769231 10.7662163291074  9.27771395186451 10.9229166666667  9.08653846153846 10.9229166666667  C 9.3173076923077 10.9229166666667  8.85576923076923 10.9229166666667  9.08653846153846 10.9229166666667  L 3.17307692307692 10.9229166666667  C 2.98190143275088 10.9229166666667  2.82692307692308 10.7662163291074  2.82692307692308 10.5729166666667  C 2.82685965997388 9.23308494887406  3.61875052132193 8.02292171818268  4.83836538461538 7.49904166666667  Z M 11.3365384615385 3.35416666666667  C 11.3365384615385 3.16086700422589  11.4915168173663 3.00416666666667  11.6826923076923 3.00416666666667  C 11.8738677980183 3.00416666666667  12.0288461538462 3.16086700422589  12.0288461538462 3.35416666666667  L 12.0288461538462 4.27466666666667  C 12.0288461538462 4.46796632910744  11.8738677980184 4.62466666666667  11.6826923076923 4.62466666666667  C 11.4915168173663 4.62466666666667  11.3365384615385 4.46796632910744  11.3365384615385 4.27466666666667  L 11.3365384615385 3.35416666666667  Z M 11.3365384615385 6.57620833333333  C 11.3365384615385 6.38290867089256  11.4915168173663 6.22620833333333  11.6826923076923 6.22620833333333  C 11.8738677980183 6.22620833333333  12.0288461538462 6.38290867089256  12.0288461538462 6.57620833333333  L 12.0288461538462 7.49670833333333  C 12.0288461538462 7.69000799577411  11.8738677980184 7.84670833333333  11.6826923076923 7.84670833333333  C 11.4915168173663 7.84670833333333  11.3365384615385 7.69000799577411  11.3365384615385 7.49670833333333  L 11.3365384615385 6.57620833333333  Z M 8.71730769230769 10.2229166666667  C 8.54387329638308 8.91207683341977  7.43779209532133 7.93334636645772  6.12980769230769 7.93333333333333  C 4.82182328929406 7.93334636645772  3.71574208823231 8.91207683341977  3.54230769230769 10.2229166666667  L 8.71730769230769 10.2229166666667  Z M 11.3365384615385 9.79825  C 11.3365384615385 9.60495033755923  11.4915168173663 9.44825  11.6826923076923 9.44825  C 11.8738677980183 9.44825  12.0288461538462 9.60495033755923  12.0288461538462 9.79825  L 12.0288461538462 10.71875  C 12.0288461538462 10.9120496624408  11.8738677980184 11.06875  11.6826923076923 11.06875  C 11.4915168173663 11.06875  11.3365384615385 10.9120496624408  11.3365384615385 10.71875  L 11.3365384615385 9.79825  Z " fill-rule="nonzero" fill="#333333" stroke="none" transform="matrix(1 0 0 1 28 138 )" />
  </g>
</svg>