<?xml version="1.0" encoding="utf-8"?>
<svg version="1.1" xmlns:xlink="http://www.w3.org/1999/xlink" width="14px" height="14px" xmlns="http://www.w3.org/2000/svg">
  <g transform="matrix(1 0 0 1 -28 -658 )">
    <path d="M 0.281139950000001 13.74314312  L 0.269786369999999 13.60518096  L 0.269786369999999 0.231878780000006  L 1.38204346 0.231878780000006  L 1.3820368808778 12.631656065  L 13.7441605 12.631656065  L 13.7441605 13.74314312  L 0.281139950000001 13.74314312  Z M 7.494998385 1.78309330500001  L 6.382741295 1.78309330500001  L 6.382741295 12.05393063  L 7.494998385 12.05393063  L 7.494998385 1.78309330500001  Z M 9.73579082 4.39946724000001  L 10.84804791 4.39946724000001  L 10.84804791 12.05393063  L 9.73579082 12.05393063  L 9.73579082 4.39946724000001  Z M 4.144205275 6.98751094999998  L 4.144205275 12.05393063  L 3.031948185 12.05393063  L 3.031948185 6.98751094999998  L 4.144205275 6.98751094999998  Z " fill-rule="nonzero" fill="#333333" stroke="none" transform="matrix(1 0 0 1 28 658 )" />
  </g>
</svg>