<?xml version="1.0" encoding="utf-8"?>
<svg version="1.1" xmlns:xlink="http://www.w3.org/1999/xlink" width="13px" height="14px" xmlns="http://www.w3.org/2000/svg">
  <g transform="matrix(1 0 0 1 -28 -418 )">
    <path d="M 12.5371415541667 11.9630484651523  C 12.7711278924875 11.9263091946313  12.9436917476702 11.7228967155835  12.9436917476702 11.4838207460548  C 12.9436917476702 11.3846344384758  12.9135701622366 11.2878328419297  12.8573879010417 11.2064664826106  L 11.0960330135417 8.61662815880809  C 11.6709302690776 7.71452599476962  11.9766169381613 6.66447719446033  11.9766169381613 5.59177890257388  C 11.9766169381613 2.50434134687043  9.49759106011937 0.00147868760440772  6.43955766420301 0.00147868760440772  C 3.38152426828666 0.00147868760440772  0.902498390244678 2.50434134687043  0.902498390244678 5.59177890257388  C 0.902498390244678 6.69473712003548  1.22565932143765 7.77304934973522  1.831306303125 8.69099305511226  L 0.134000682291667 11.2032332345716  C 0.0770842368792537 11.284929213718  0.0465393830464278 11.3823748149881  0.0465393830464278 11.4822563046921  C 0.0465393830464278 11.7255015480309  0.225010384404805 11.9311194940025  0.463854408333334 11.9630484651523  L 2.09390829375 12.1861431540648  L 2.81446257083333 13.7251731718199  C 2.88908438908444 13.8829292601349  3.04202593532577 13.9879295154139  3.21477050104167 13.9999999660758  C 3.37572660509636 14.0000606399095  3.56124316237075 13.9187309220385  3.65030553333333 13.7833717869133  L 5.4212678 11.0868360043849  C 6.1317806104505 11.2282682485073  6.86281042809117 11.2282682485073  7.57332323854167 11.0868360043849  L 9.33467812604167 13.7833717869133  C 9.42374049700424 13.9187309220385  9.57402995219531 14.0000606399095  9.73498605625 13.9999999660758  C 9.90915139217335 13.9866848981321  10.1008632981692 13.8789745705092  10.17372354375 13.71870666207  L 10.8654556427083 12.1861431540648  L 12.5371415541667 11.9630484651523  Z M 6.43876398158492 0.967276306044234  C 8.97150188075432 0.967276306044234  11.0246916211683 3.04020825047758  11.0246916211683 5.59729939248124  C 11.0246916211683 8.15439053448487  8.97150188075432 10.2273224789182  6.43876398158492 10.2273224789182  C 5.78985719257295 10.2273224789182  5.14833826147679 10.0882853518139  4.55660267291667 9.81939951917482  L 3.27561729895833 8.94965355448549  C 2.36704514356837 8.07579573172506  1.85283634200159 6.8642177951193  1.85283634200159 5.59729939248124  C 1.85283634200159 3.04020825047758  3.90602608241552 0.967276306044234  6.43876398158492 0.967276306044234  Z M 2.43336942604167 9.541339463208  L 2.65113693541667 9.69006925581633  C 3.08298086146046 10.0932523020311  3.57599963806189 10.4240002846266  4.11146026145833 10.6697459272706  L 4.399681975 10.8799075966832  L 3.30764194583333 12.5418013543749  L 2.84008228020833 11.5394918919599  C 2.76982207280352 11.3912683866862  2.63000128891158 11.2890453026966  2.46859651458333 11.2678983594149  L 1.35413924479167 11.1159353050956  L 2.43336942604167 9.541339463208  Z M 8.530859796875 10.7699768762464  C 9.27223136765697 10.4691545487424  9.93990585285711 10.0090933753273  10.487564953125 9.42170898498224  L 11.6308444010417 11.0933025141348  L 10.487564953125 11.2549653262431  C 10.3228976958645 11.2770174699272  10.1812004471412 11.3833952129298  10.1128767322917 11.536258630249  L 9.67093677604167 12.5062355302423  L 8.530859796875 10.7699768762464  Z M 3.85846565 5.75519630273437  C 3.85846565 7.21945240575846  5.03417485777852 8.40646654927263  6.48448566458334 8.40646654927263  C 7.93479647138814 8.40646654927263  9.11050567916667 7.21945244526547  9.11050567916667 5.75519634224138  C 9.11050567916667 5.4873446168151  8.8954369222377 5.27020785156249  8.630136165625 5.27020785156249  C 8.3648354090123 5.27020785156249  8.14976665208333 5.48734457730809  8.14976665208333 5.75519630273437  C 8.14976665208333 6.68374895490589  7.40419495816275 7.43648960742187  6.48448566458334 7.43648960742187  C 5.56477637100392 7.43648960742187  4.81920467708334 6.68374895490589  4.81920467708334 5.75519630273437  C 4.81920467708334 5.48734457730809  4.60413592015437 5.27020785156249  4.33883516354167 5.27020785156249  C 4.07353440692897 5.27020785156249  3.85846565 5.48734457730809  3.85846565 5.75519630273437  Z " fill-rule="nonzero" fill="#333333" stroke="none" transform="matrix(1 0 0 1 28 418 )" />
  </g>
</svg>