<?xml version="1.0" encoding="utf-8"?>
<svg version="1.1" xmlns:xlink="http://www.w3.org/1999/xlink" width="14px" height="14px" xmlns="http://www.w3.org/2000/svg">
  <g transform="matrix(1 0 0 1 -28 -698 )">
    <path d="M 7.4953125 9.97812499999998  C 8.2328125 10.159375  8.8140625 10.7328125  9.00236453653246 11.46875  L 12.3109375 11.46875  L 12.3109375 12.46875  L 9 12.4578125  C 8.7734375 13.34375  7.9609375 14  6.9953125 14  C 6.0296875 14  5.215625 13.34375  4.9930362896645 12.46875  L 1.678125 12.46875  L 1.678125 11.46875  L 4.990625 11.459375  C 5.1765625 10.7328125  5.7578125 10.159375  6.4953125 9.97812499999998  C 6.65625 9.9375  6.8234375 9.91718750000001  6.9953125 9.91718750000001  C 7.1671875 9.91718750000001  7.3359375 9.93906249999998  7.4953125 9.97812499999998  Z M 12.6015625 8.93124999999998  C 13.371875 8.93124999999998  13.9984375 8.31093750000002  14 7.55000000000001  L 14 1.38125000000002  C 14 0.620312500000011  13.3734375 0  12.603125 0  L 1.396875 0  C 0.6265625 0  0 0.620312500000011  0 1.38125000000002  L 0 7.55000000000001  C 0 8.3125  0.6265625 8.93124999999998  1.396875 8.93124999999998  L 6.49375 8.93124999999998  L 6.49375 9.9765625  C 6.653125 9.9375  6.821875 9.91562499999998  6.99375 9.91562499999998  C 7.165625 9.91562499999998  7.3328125 9.93593750000002  7.49375 9.9765625  L 7.49375 8.93124999999998  L 12.6015625 8.93124999999998  Z M 7.9328125 12.4578125  C 8.0171875 12.309375  8.0640625 12.1390625  8.0640625 11.9578125  C 8.0640625 11.7765625  8.0171875 11.60625  7.9328125 11.4578125  C 7.75 11.134375  7.4 10.915625  6.9953125 10.915625  C 6.590625 10.915625  6.2390625 11.134375  6.0578125 11.4578125  C 5.9734375 11.60625  5.9265625 11.7765625  5.9265625 11.9578125  C 5.9265625 12.1390625  5.975 12.309375  6.0578125 12.4578125  C 6.240625 12.78125  6.5921875 13  6.9953125 13  C 7.3984375 13  7.75 12.78125  7.9328125 12.4578125  Z M 12.6015625 1  C 12.8203125 1  12.9984375 1.171875  13 1.38125000000002  L 13 7.55156249999999  C 13 7.76249999999999  12.821875 7.93281250000001  12.603125 8  L 1.396875 8  C 1.178125 7.93281250000001  1 7.76093750000001  1 7.55156249999999  L 1 1.38125000000002  C 1 1.17031250000002  1.178125 1  1.396875 1  L 12.6015625 1  Z " fill-rule="nonzero" fill="#333333" stroke="none" transform="matrix(1 0 0 1 28 698 )" />
  </g>
</svg>