<?xml version="1.0" encoding="utf-8"?>
<svg version="1.1" xmlns:xlink="http://www.w3.org/1999/xlink" width="15px" height="14px" xmlns="http://www.w3.org/2000/svg">
  <g transform="matrix(1 0 0 1 -27 -378 )">
    <path d="M 14.8846153846154 5.662216  C 14.8846153846154 5.091632  14.4248861538462 4.62679466666667  13.8605723076923 4.62679466666667  L 13.7744861538462 4.62679466666667  L 13.7744861538462 3.27418933333333  C 13.7744861538462 2.703624  13.3147569230769 2.23832  12.75 2.23832  L 7.17232615384615 2.23832  L 7.17232615384615 1.51872  C 7.17232615384615 0.948154666666666  6.71259692307692 0.483298666666667  6.14828307692308 0.483298666666667  L 1.13987076923077 0.483298666666667  C 0.575113846153846 0.483298666666667  0.115384615384615 0.948136  0.115384615384615 1.51872  L 0.115384615384615 12.4817466666667  C 0.115384615384615 13.0527786666667  0.575113846153846 13.5167013333333  1.13987076923077 13.5167013333333  L 12.75 13.5167013333333  C 13.3147569230769 13.5167013333333  13.7744861538462 13.05276  13.7726953846154 12.50088  L 14.8846153846154 5.662216  Z M 1.02539076923077 1.97945066666667  C 1.02539076923077 1.532384  1.15294153846154 1.40294933333333  1.59509538461538 1.40294933333333  L 5.69305846153846 1.40294933333333  C 6.13386461538462 1.40294933333333  6.26187692307692 1.532384  6.26187692307692 1.97945066666667  L 6.26187692307692 3.04358133333333  L 6.29027076923077 3.15841866666667  L 12.29568 3.15841866666667  C 12.7369292307692 3.15841866666667  12.8644984615385 3.28785333333333  12.8644984615385 3.73355733333333  L 12.8644984615385 4.62679466666667  L 2.24911384615385 4.62679466666667  C 1.68481846153846 4.62679466666667  1.22507076923077 5.091632  1.22597538461539 5.64444533333333  L 1.02540923076923 6.96332  L 1.02540923076923 1.97945066666667  Z M 13.9759569230769 6.101088  L 12.86448 12.0205493333333  C 12.86448 12.467616  12.7369292307692 12.596584  12.2947753846154 12.596584  L 1.59509538461538 12.596584  C 1.15294153846154 12.596584  1.02539076923077 12.467616  1.02358153846154 12.04196  L 2.13550153846154 6.12249866666667  C 2.13550153846154 5.67588  2.26351384615385 5.546464  2.70432 5.546464  L 13.4048861538462 5.546464  C 13.8461353846154 5.546464  13.9741476923077 5.67589866666667  13.9759569230769 6.101088  Z " fill-rule="nonzero" fill="#333333" stroke="none" transform="matrix(1 0 0 1 27 378 )" />
  </g>
</svg>