<?xml version="1.0" encoding="utf-8"?>
<svg version="1.1" xmlns:xlink="http://www.w3.org/1999/xlink" width="14px" height="15px" xmlns="http://www.w3.org/2000/svg">
  <g transform="matrix(1 0 0 1 -27 -98 )">
    <path d="M 13.1809027777778 4.378125  C 13.4239583333333 4.52109375  13.5673611111111 4.76953125  13.5625 5.04609375  C 13.5576388888889 5.3203125  13.4069444444444 5.56640625  13.1590277777778 5.70234375  L 7.02430555555556 9.03984375  C 6.96840277777778 9.0703125  6.90520833333333 9.084375  6.84201388888889 9.084375  C 6.77881944444445 9.084375  6.715625 9.06796875  6.65729166666667 9.0375  L 0.585763888888889 5.69765625  C 0.340277777777778 5.56171875  0.189583333333332 5.31796875  0.184722222222223 5.04375000000001  C 0.179861111111111 4.76953125  0.323263888888888 4.52109375  0.56388888888889 4.378125  L 6.64756944444444 0.787499999999998  C 6.76666666666667 0.717187499999998  6.91736111111111 0.717187499999998  7.03645833333333 0.787499999999998  L 13.1809027777778 4.378125  Z M 13.8784722222222 6.9609375  L 13.8784722222222 8.06015625  C 13.8784722222222 8.19609375  13.7982638888889 8.3203125  13.671875 8.38125  L 7.03645833333333 11.56875  C 6.99027777777778 11.59453125  6.934375 11.60625  6.87604166666667 11.60625  C 6.81770833333333 11.60625  6.759375 11.5921875  6.70590277777778 11.56640625  L 0.233333333333331 8.37890625  C 0.109375 8.31796875  0.029166666666665 8.19375  0.029166666666665 8.06015625  L 0.029166666666665 6.9609375  C 0.029166666666665 6.76171875  0.196874999999998 6.60234375  0.401041666666667 6.60234375  C 0.607638888888889 6.60234375  0.772916666666666 6.7640625  0.772916666666666 6.9609375  L 0.772916666666666 7.83984375  L 6.87361111111111 10.84453125  L 13.1347222222222 7.8375  L 13.1347222222222 6.9609375  C 13.1347222222222 6.76171875  13.3024305555556 6.60234375  13.5065972222222 6.60234375  C 13.7107638888889 6.60234375  13.8784722222222 6.7640625  13.8784722222222 6.9609375  Z M 13.8784722222222 10.7765625  C 13.8784722222222 10.9125  13.7982638888889 11.03671875  13.671875 11.09765625  L 7.03645833333333 14.28515625  C 6.99027777777778 14.3109375  6.934375 14.32265625  6.87604166666667 14.32265625  C 6.81770833333333 14.32265625  6.759375 14.30859375  6.70590277777778 14.2828125  L 0.233333333333331 11.0953125  C 0.109375 11.034375  0.029166666666665 10.91015625  0.029166666666665 10.7765625  L 0.029166666666665 9.67734375  C 0.029166666666665 9.478125  0.196874999999998 9.31875  0.401041666666667 9.31875  C 0.607638888888889 9.31875  0.772916666666666 9.48046875  0.772916666666666 9.67734375  L 0.772916666666666 10.55625  L 6.87361111111111 13.5609375  L 13.1347222222222 10.55390625  L 13.1347222222222 9.67734375  C 13.1347222222222 9.478125  13.3024305555556 9.31875  13.5065972222222 9.31875  C 13.7107638888889 9.31875  13.8784722222222 9.48046875  13.8784722222222 9.67734375  L 13.8784722222222 10.7765625  Z M 6.84201388888889 8.31328125  L 12.7920138888889 5.07421875  L 12.9864583333333 4.68515625  L 12.7944444444444 4.9921875  L 6.84444444444444 1.5140625  L 0.952777777777779 4.9921875  L 0.952777777777779 5.07421875  L 6.84201388888889 8.31328125  Z " fill-rule="nonzero" fill="#333333" stroke="none" transform="matrix(1 0 0 1 27 98 )" />
  </g>
</svg>