<?xml version="1.0" encoding="utf-8"?>
<svg version="1.1" xmlns:xlink="http://www.w3.org/1999/xlink" width="14px" height="17px" xmlns="http://www.w3.org/2000/svg">
  <g transform="matrix(1 0 0 1 -28 -217 )">
    <path d="M 6.2565857142413 0.218644562619878  C 6.40605542425724 0.142414555365024  6.59346514903409 0.148646810870348  6.75722824179511 0.219564232241786  C 6.81785756852859 0.250809266029088  6.87216734526175 0.295667403205714  6.91489204545455 0.353285714285708  C 6.91987784090909 0.359982142857137  7.42394176136364 1.02844642857143  8.35419886363636 1.61587499999999  C 9.57896875 2.38928571428572  10.9343295454545 2.66762499999999  12.382703125 2.44323214285714  L 12.9173835227273 2.36037499999999  L 12.9173835227273 9.43353571428572  C 12.9173872444875 9.48322440287679  12.9089942131879 9.53101766575357  12.89350159798 9.57566111898734  C 12.8418428990441 9.87124189655362  12.6248835936778 10.8605853465501  11.8957755681818 11.9738392857143  C 11.3964943181818 12.7361964285714  10.7580355113636 13.4031785714286  9.99816335227272 13.9562321428571  C 9.05533096590909 14.6424464285714  7.92401704545454 15.152625  6.63561363636364 15.4725892857143  C 6.59798765056545 15.4819505773938  6.55929308201842 15.4866961872115  6.48483948863637 15.4867142857143  C 6.44681818181818 15.4867142857143  6.40820596590909 15.4821428571429  6.36968607954545 15.4725714285714  C 5.08130113636364 15.1526071428571  3.94996875 14.6424285714286  3.00713636363636 13.9562142857143  C 2.24726420454545 13.4031607142857  1.60880539772727 12.7361964285714  1.10952414772727 11.9738214285714  C 0.255291193181819 10.6695178571429  0.104073863636363 9.53530357142857  0.0980539772727263 9.48764285714286  L 0.0946377840909091 2.36037499999999  L 0.62931818181818 2.44321428571428  C 2.08978693181818 2.6695  3.45489772727273 2.38494642857142  4.68683238636364 1.59744642857143  C 5.60800426136363 1.00858928571428  6.09173721590909 0.360642857142856  6.09650142045454 0.354160714285708  C 6.13974188355652 0.295555120013481  6.19493669075302 0.250085752324903  6.2565857142413 0.218644562619878  Z M 7.81608380681819 2.34228571428571  C 7.22091707866996 1.96182591375467  6.78154143052917 1.55654639813279  6.50601795516613 1.26800606892181  C 6.23049190173989 1.55654862499416  5.79111440819023 1.96182335556658  5.19595596590909 2.34226785714286  C 4.57108806818182 2.74171428571429  3.90049857954546 3.033625  3.20285653409091 3.20991071428572  C 2.49756960227273 3.38812499999999  1.76469460227273 3.44757142857143  1.01791477272727 3.38773214285714  L 1.01791477272727 9.40144642857142  C 1.04306534090909 9.55498214285714  1.21850994318182 10.4865  1.91314204545455 11.5319285714286  C 2.90719220614577 13.0280001026378  4.45095503015938 14.0542647991918  6.50262287892131 14.583315232425  C 8.57152918503971 14.0498364836567  10.1232523641476 13.011519537365  11.1157571022727 11.4960892857143  C 11.8599517045455 10.3598035714286  11.9895269886364 9.38905357142858  11.9941065340909 9.35741811286  L 11.9941065340909 3.38775  C 11.2472897727273 3.44760714285714  10.5145255681818 3.38816071428572  9.80918323863636 3.20992857142858  C 9.11154119318182 3.03364285714286  8.44097017045455 2.74173214285715  7.81608380681819 2.34228571428571  Z M 9.52781818181818 6.84891071428571  L 6.34837642045455 9.946125  C 6.33518011718535 9.9590116295051  6.321254320704 9.97103770372043  5.69551420454545 9.94842857142857  C 5.7773149841818 10.0271738663131  5.89773509294009 10.0732730554915  6.00904697221822 10.0779073085611  C 5.89441947221822 10.0779073085611  5.77154079693244 10.0369497173828  5.68147267086385 9.95678224978574  C 5.66919065367268 9.94585032238615  5.65751875 9.9341892857143  5.64656107954545 9.92180357142857  L 3.986734375 8.045375  C 3.82100284090909 7.85801785714286  3.84371590909091 7.57621428571429  4.03746022727273 7.41594642857142  C 4.23122301136364 7.25567857142858  4.52263352272727 7.27762499999999  4.68836505681818 7.465  L 6.03343038301828 8.98559187967999  L 8.87257386363636 6.219875  C 9.05219176136363 6.04491071428572  9.34445170454545 6.04383928571428  9.52543607954545 6.21757142857143  C 9.70638352272727 6.39126785714286  9.70743607954545 6.67392857142857  9.52781818181818 6.84891071428571  Z M 5.99735795454545 9.63160714285714  L 4.33753125 7.75519642857143  L 5.99735795454545 9.63160714285714  Z " fill-rule="nonzero" fill="#333333" stroke="none" transform="matrix(1 0 0 1 28 217 )" />
  </g>
</svg>