<?xml version="1.0" encoding="utf-8"?>
<svg version="1.1" xmlns:xlink="http://www.w3.org/1999/xlink" width="14px" height="14px" xmlns="http://www.w3.org/2000/svg">
  <g transform="matrix(1 0 0 1 -28 -738 )">
    <path d="M 12.5913336982759 8.35583473706897  C 12.5913336982759 8.18540133189655  12.4530109224138 8.04707855603448  12.2825775172414 8.04707855603448  L 7.3434048987069 8.04707855603448  C 7.17281711637931 8.04707855603448  7.03464871767241 8.18540133189655  7.03464871767241 8.35583473706897  L 7.03464871767241 13.2950073556034  C 7.03464871767241 13.465595137931  7.1728171012931 13.6037635366379  7.3434048987069 13.6037635366379  L 12.2825775172414 13.6037635366379  C 12.4530109224138 13.6037635366379  12.5913336982759 13.4655951530172  12.5913336982759 13.2950073556034  L 12.5913336982759 8.35583473706897  Z M 11.9738213362069 8.66459093318966  L 11.9738213362069 12.9862511896552  L 7.65216107974138 12.9862511896552  L 7.65216107974138 8.66459093318966  L 11.9738213362069 8.66459093318966  Z M 5.83945354094828 8.35583473706897  C 5.83945354094828 8.18540133189655  5.70128514224138 8.04707855603448  5.53069735991379 8.04707855603448  L 0.59152474137931 8.04707855603448  C 0.421091336206896 8.04707855603448  0.282768560344827 8.18540133189655  0.282768560344827 8.35583473706897  L 0.282768560344827 13.2950073556034  C 0.282768560344827 13.465595137931  0.421091336206896 13.6037635366379  0.59152474137931 13.6037635366379  L 5.53069735991379 13.6037635366379  C 5.70128514224138 13.6037635366379  5.83945354094828 13.4655951530172  5.83945354094828 13.2950073556034  L 5.83945354094828 8.35583473706897  Z M 5.22194117887931 8.66459093318966  L 5.22194117887931 12.9862511896552  L 0.900280922413793 12.9862511896552  L 0.900280922413793 8.66459093318966  L 5.22194117887931 8.66459093318966  Z M 5.83945354094828 1.56999140948276  C 5.83945354094828 1.39940361206897  5.70128514224138 1.26123522844828  5.53069735991379 1.26123522844828  L 0.59152474137931 1.26123522844828  C 0.421091336206896 1.26123522844828  0.282768560344827 1.39940361206897  0.282768560344827 1.56999140948276  L 0.282768560344827 6.50900965086207  C 0.282768560344827 6.67959743318965  0.421091336206896 6.81776583189655  0.59152474137931 6.81776583189655  L 5.53069735991379 6.81776583189655  C 5.70128514224138 6.81776583189655  5.83945354094828 6.67959744827586  5.83945354094828 6.50900965086207  L 5.83945354094828 1.56999140948276  Z M 5.22194117887931 1.87874759051724  L 5.22194117887931 6.20025346982759  L 0.900280922413793 6.20025346982759  L 0.900280922413793 1.87874759051724  L 5.22194117887931 1.87874759051724  Z M 13.6911232047414 3.92580105387931  C 13.6911232047414 3.84382630172414  13.6585494288793 3.76524784698276  13.6006576487069 3.70735606681034  L 10.3656647650862 0.472363183189655  C 10.3077729849138 0.414471403017242  10.2291945301724 0.381897627155173  10.1473741400862 0.381897627155173  C 10.0653993728448 0.381897627155173  9.98697531034483 0.414471403017242  9.92892913793104 0.472363183189655  L 6.69393625431035 3.70735606681034  C 6.57336697198276 3.82792534913793  6.57336697198276 4.02352239655172  6.69393625431035 4.14409167887931  L 9.92892913793104 7.3790845625  C 9.98929096767241 7.43929201508621  10.0683325538793 7.46955011853448  10.1473741400862 7.46955011853448  C 10.2262613491379 7.46955011853448  10.3053029202586 7.43929201508621  10.3656647650862 7.3790845625  L 13.6006576487069 4.14409167887931  C 13.6585494288793 4.0861998987069  13.6911232047414 4.00762144396552  13.6911232047414 3.92580105387931  Z M 12.9456314267241 3.92580105387931  L 10.1473741551724 6.72405832543103  L 7.34896250646552 3.92580105387931  L 10.1473741551724 1.12738940517241  L 12.9456314267241 3.92580105387931  Z " fill-rule="nonzero" fill="#333333" stroke="none" transform="matrix(1 0 0 1 28 738 )" />
  </g>
</svg>