<?xml version="1.0" encoding="utf-8"?>
<svg version="1.1" xmlns:xlink="http://www.w3.org/1999/xlink" width="14px" height="14px" xmlns="http://www.w3.org/2000/svg">
  <g transform="matrix(1 0 0 1 -28 -778 )">
    <path d="M 9.8875 7  C 9.8875 5.42499999999999  8.575 4.11249999999999  7 4.11249999999999  C 5.425 4.11249999999999  4.1125 5.42499999999999  4.1125 7  C 4.1125 8.57500000000001  5.425 9.88750000000001  7 9.88750000000001  C 8.575 9.88750000000001  9.8875 8.57500000000001  9.8875 7  Z M 8.8375 7  C 8.8375 8.04999999999999  8.05 8.83750000000002  7 8.83750000000002  C 5.95 8.83750000000002  5.1625 7.96250000000002  5.1625 7  C 5.1625 5.95000000000001  6.0375 5.16249999999998  7 5.16249999999998  C 7.9625 5.16249999999998  8.8375 6.03749999999998  8.8375 7  Z M 13.9125 7.17499999999999  C 14 7  14 6.91249999999998  13.9125 6.73749999999999  C 13.825 6.65000000000002  13.7375 6.5625  13.5625 6.47499999999998  C 13.3875 6.47499999999998  13.125 6.29999999999999  12.95 6.125  C 12.425 5.59999999999998  12.425 4.63750000000001  12.95 4.02500000000002  C 13.125 3.84999999999998  13.125 3.5  12.95 3.32500000000001  L 10.5875 0.96250000000002  C 10.5 0.96250000000002  10.4125 0.875  10.2375 0.875  C 10.0625 0.875  9.975 0.96250000000002  9.8875 1.04999999999999  C 9.3625 1.57500000000001  8.4 1.57500000000001  7.7875 1.04999999999999  C 7.6125 0.875  7.525 0.61249999999999  7.4375 0.34999999999998  C 7.4375 0.26250000000001  7.35 0.0875000000000199  7.175 0  L 6.825 0  L 3.675 0.875  C 3.325 0.96250000000002  3.2375 1.22499999999998  3.2375 1.48749999999999  C 3.4125 2.01250000000001  3.2375 2.53749999999998  2.8875 2.88750000000001  C 2.5375 3.23749999999999  2.0125 3.41249999999998  1.4875 3.23749999999999  C 1.225 3.23749999999999  0.9625 3.32500000000001  0.875 3.67499999999999  L 0 6.82500000000001  C 0 6.91249999999998  0 7.08750000000002  0.0874999999999997 7.17499999999999  C 0.174999999999999 7.26250000000001  0.262500000000001 7.34999999999998  0.4375 7.4375  C 0.612499999999999 7.52500000000002  0.875 7.61249999999999  1.05 7.78749999999998  C 1.575 8.3125  1.575 9.27500000000002  1.05 9.88750000000001  C 0.9625 9.97499999999998  0.875 10.15  0.875 10.2375  C 0.875 10.4125  0.9625 10.5  1.05 10.5875  L 3.4125 12.95  C 3.5875 13.125  3.9375 13.125  4.1125 12.95  C 4.6375 12.425  5.6 12.425  6.2125 12.95  C 6.3875 13.125  6.5625 13.3875  6.5625 13.65  C 6.5625 13.825  6.65 13.9125  6.825 14  L 7.175 14  L 10.325 13.125  C 10.5875 13.0375  10.7625 12.775  10.675 12.5125  C 10.5 11.9875  10.675 11.4625  11.025 11.1125  C 11.375 10.7625  11.9 10.5875  12.425 10.7625  C 12.6875 10.85  12.95 10.675  13.0375 10.4125  L 13.9125 7.17499999999999  Z M 12.8625 7.26250000000001  L 12.25 9.625  C 11.55 9.625  10.85 9.88750000000001  10.325 10.325  C 9.8875 10.85  9.625 11.55  9.625 12.25  L 7.35 12.8625  C 7.2625 12.6  7.0875 12.425  6.9125 12.1625  C 6.475 11.725  5.8625 11.4625  5.1625 11.4625  C 4.6375 11.4625  4.2 11.6375  3.7625 11.9  L 2.1 10.2375  C 2.7125 9.27500000000002  2.625 7.96250000000002  1.75 7.08750000000002  C 1.575 6.91249999999998  1.3125 6.73749999999999  1.1375 6.65000000000002  L 1.75 4.375  C 2.45 4.375  3.15 4.11249999999999  3.675 3.67499999999999  C 4.1125 3.15000000000002  4.375 2.45000000000001  4.375 1.75  L 6.65 1.13750000000001  C 6.7375 1.3125  6.9125 1.57500000000001  7.0875 1.75  C 7.875 2.53749999999998  9.275 2.71250000000002  10.2375 2.09999999999998  L 11.9 3.76250000000001  C 11.2875 4.72499999999998  11.375 6.03749999999998  12.25 6.82500000000001  C 12.425 7  12.6875 7.17499999999999  12.8625 7.26250000000001  Z " fill-rule="nonzero" fill="#333333" stroke="none" transform="matrix(1 0 0 1 28 778 )" />
  </g>
</svg>