<?xml version="1.0" encoding="utf-8"?>
<svg version="1.1" xmlns:xlink="http://www.w3.org/1999/xlink" width="16px" height="16px" xmlns="http://www.w3.org/2000/svg">
  <g transform="matrix(1 0 0 1 -26 -297 )">
    <path d="M 8.82903607575757 10.3853793125  C 8.82903607575757 10.51668965625  8.87905906060606 10.6413793125  8.97000995454545 10.733241375  L 9.94371945454545 11.726344828125  C 10.2973579090909 12.087724140625  10.9168939545455 12.0893793125  11.2724049393939 11.726344828125  L 14.4663861212121 8.469517234375  C 14.6420191443065 8.29030040762197  14.740680929688 8.04597339022105  14.7403088030303 7.79117240625  C 14.7403088030303 7.536  14.6410653333333 7.2918620625  14.4653161060606 7.1133793125  L 13.4916066060606 6.119724140625  C 13.3414071701549 5.96316407348935  13.1084986701418 5.92888387480497  12.9218260454545 6.0358620625  L 8.81512593939394 1.84744828125  C 8.8525763030303 1.775724140625  8.873174 1.695172421875  8.873174 1.61268965625  C 8.873174 1.479724140625  8.82288351515152 1.355586203125  8.73113012121212 1.264  L 7.75715310606061 0.27144828125  C 7.40137463636364 -0.09131034375  6.78344359090909 -0.0893793125  6.42900263636364 0.27144828125  L 3.23555645454545 3.52882759375  C 3.05915137026882 3.70730246945399  2.95984406103386 3.95149720648433  2.96002875757576 4.206344828125  C 2.96002875757576 4.461793109375  3.05927222727273 4.706206890625  3.23555645454545 4.8841379375  L 4.20926595454545 5.877241375  C 4.35371736363636 6.02041378125  4.56638193939394 6.060137921875  4.74962122727273 5.978482765625  L 5.91406010606061 7.165241375  L 0.209031893939394 12.98593103125  C 0.0757650422085338 13.1203948662256  0.000649793656109338 13.3045571413815  0.000649793656109338 13.4968275859375  C 0.000649793656109338 13.6890980304935  0.0757650422085338 13.8732603056494  0.209031893939394 14.007724140625  L 1.16936627272727 14.9881379375  C 1.44676185040763 15.2713311896669  1.89367352823668 15.2709617946328  2.17062854545455 14.98731034375  L 7.87645927272727 9.166344828125  L 8.87156898484849 10.18206896875  C 8.84346305743733 10.2459354867054  8.82887246132771 10.3152436819674  8.82876857575758 10.3853793125  Z M 5.31191172727273 5.42731034375  L 8.34298381818182 2.378206890625  L 12.5154895757576 6.652965515625  L 9.42797442424242 9.68744828125  L 7.84168392424242 8.094344828125  L 1.74529939393939 14.18206896875  C 1.60486051515152 14.32220690625  1.34137045454545 14.0548965625  1.20146657575758 13.91255171875  C 1.13245090909091 13.8438620625  0.908551212121212 13.6786206875  0.908283727272727 13.5798620625  C 0.908283727272727 13.479448265625  0.946536606060606 13.386758609375  1.01635477272727 13.315586203125  L 7.0292785 7.25655171875  L 5.31191172727273 5.428413796875  Z M 9.76155018181818 10.21793103125  L 13.1050653333333 6.87944828125  C 13.1591008636364 6.824275875  13.2449691969697 6.824275875  13.2990047272727 6.87944828125  L 14.150198030303 7.80082759375  C 14.1761939425196 7.82708364482522  14.1908441619252 7.86302754323404  14.1908441619252 7.9005517265625  C 14.1908441619252 7.93807590989096  14.1761939425196 7.97401980829978  14.150198030303 8.000275859375  L 10.7933077575758 11.352275859375  C 10.7388408014675 11.4054527402354  10.6535678197446 11.4054527402354  10.5991008636364 11.352275859375  L 9.76181768181818 10.417103453125  C 9.73611222670724 10.3908588777023  9.72166249702663 10.3550957989934  9.72169228787879 10.317793109375  C 9.72185888890028 10.2802878475498  9.73626263649773 10.2443414945033  9.76181768181818 10.217655171875  Z M 8.02973827272727 1.63144828125  C 7.99014787878788 1.559172421875  8.01556063636363 1.705103453125  7.99014787878788 1.73131034375  L 4.64128268181818 5.09655171875  C 4.58730004619839 5.14937756514707  4.50266342349858 5.14937756514707  4.44868078787879 5.09655171875  L 3.67292321212121 4.2813793125  C 3.64717858249188 4.25492830165139  3.6327073734076 4.21899407908372  3.6327073734076 4.1815172421875  C 3.6327073734076 4.14404040529128  3.64717858249188 4.1081061827236  3.67292321212121 4.081655171875  L 7.01376334848485 0.74593103125  C 7.06727741648313 0.6911217629346  7.15365365927444 0.691121762934599  7.20716772727273 0.74593103125  L 7.99095039393939 1.532965515625  C 8.01572611542304 1.5593964257285  8.02962552905542 1.59468715927359  8.02973827272727 1.63144828125  Z M 13.4974916666667 13.600275859375  L 7.96607263636364 13.6  C 6.85326177272727 13.6  5.94830042424242 14.459034484375  5.94830043939394 15.513655171875  L 5.94830043939394 16  L 15.5160663787879 16  L 15.5160663787879 15.513655171875  C 15.5152638636364 14.459034484375  14.6108375454545 13.600275859375  13.4974916666667 13.600275859375  Z M 14.7357612575758 15.2  L 6.80618131818182 15.2  C 6.99477066666667 14.6998620625  7.40003712121212 14.396965515625  7.75849062121212 14.4  L 13.683138469697 14.4  C 14.0517570757576 14.4  14.553056969697 14.71006896875  14.7357612575758 15.2  Z " fill-rule="nonzero" fill="#333333" stroke="none" transform="matrix(1 0 0 1 26 297 )" />
  </g>
</svg>