<?xml version="1.0" encoding="utf-8"?>
<svg version="1.1" xmlns:xlink="http://www.w3.org/1999/xlink" width="14px" height="14px" xmlns="http://www.w3.org/2000/svg">
  <g transform="matrix(1 0 0 1 -27 -578 )">
    <path d="M 11.87256 8.74712  C 11.78432 8.88192  11.63296 8.9624  11.46768 8.9624  C 11.3768354313943 8.96261357263134  11.2877531473622 8.93733571232106  11.21056 8.88944  C 11.10176 8.82216  11.02696 8.71776  10.99984 8.59552  C 10.9731517532435 8.47625311731624  10.9962032854265 8.35126066148168  11.06368 8.24936  C 11.55792 7.49528  11.8192 6.62168  11.8192 5.72304  C 11.8192 3.12704  9.64704 1.01504  6.97712 1.01504  C 4.30696 1.01504  2.13464 3.12704  2.13464 5.72304  C 2.13464 5.97904  1.91976 6.18736  1.65568 6.18736  C 1.39152 6.18736  1.17672 5.97912  1.17672 5.72312  C 1.17672 2.61512  3.7788 0.0865600000000004  6.97712 0.0865600000000004  C 10.1752 0.0865600000000004  12.77712 2.61512  12.77712 5.72312  C 12.77712 6.79832  12.46432 7.84392  11.87256 8.74712  Z M 7.06288 8.7012  C 6.872 8.7012  6.71672 8.5508  6.71672 8.36592  L 6.71672 7.17896  L 5.69256 7.17896  C 5.50168 7.17896  5.3464 7.02856  5.3464 6.84376  C 5.3464 6.65888  5.50168 6.50856  5.69256 6.50856  L 6.7168 6.50856  L 6.7168 5.65664  L 5.69256 5.65664  C 5.50168 5.65664  5.3464 5.50624  5.3464 5.32144  C 5.3464 5.13656  5.50168 4.98608  5.69256 4.98608  L 6.7168 4.98608  L 6.7168 4.56288  L 6.71712 4.56176  C 6.71856 4.55712  6.72064 4.55008  6.7212 4.5412  L 6.72248 4.5204  L 5.43936 3.27328  C 5.37484043783001 3.21150031682755  5.33835427504685 3.12604806476967  5.33835427504685 3.03672  C 5.33835427504685 2.94739193523033  5.37484043783001 2.86193968317245  5.43936 2.80016  C 5.5048 2.73656  5.59192 2.70152  5.68456 2.70152  C 5.7772 2.70152  5.86432 2.73656  5.92984 2.80016  L 7.06888 3.90736  L 8.19632 2.81152  C 8.26193108859181 2.7477603375455  8.34995300828187 2.71231025631262  8.44144 2.7128  C 8.53424 2.7128  8.62128 2.74784  8.6868 2.81152  C 8.75131510257962 2.8732857026404  8.78779962550817 2.95872482500985  8.78779962550817 3.04804  C 8.78779962550817 3.13735517499015  8.75131510257962 3.2227942973596  8.6868 3.28456  C 8.68664 3.28472  8.37064 3.5944  8.05464 3.90472  C 7.89664 4.05984  7.73864 4.21512  7.62016 4.33192  C 7.56088 4.39032  7.51144 4.43912  7.47696 4.47336  C 7.4092 4.54056  7.4092 4.54056  7.4092 4.56024  L 7.4092 4.98608  L 8.43328 4.98608  C 8.62416 4.98608  8.77952 5.13648  8.77952 5.32136  C 8.77952 5.50624  8.62416 5.65664  8.43328 5.65664  L 7.4092 5.65664  L 7.4092 6.5084  L 8.43328 6.5084  C 8.62416 6.5084  8.77952 6.6588  8.77952 6.8436  C 8.77952 7.02848  8.62416 7.1788  8.43328 7.1788  L 7.4092 7.1788  L 7.4092 8.36584  C 7.4092 8.55064  7.25392 8.70104  7.06296 8.70104  Z M 7.84552 13.85608  L 7.84552 13.84984  C 7.83352 13.84984  6.64504 13.84752  6.09512 13.84464  C 5.92952 13.84376  5.53416 13.7876  5.27256 13.71656  C 4.65392 13.54856  3.71816 13.21552  2.7736 12.58272  C 1.6272 11.8148  0.771440000000001 10.80952  0.23032 9.59472  C 0.0910400000000002 9.28192  -0.0376799999999997 8.25632  0.34568 7.68872  C 0.52744 7.42016  0.80352 7.27224  1.12328 7.27224  C 1.54408 7.27224  2.00584 7.522  2.5764 8.05824  C 2.88712 8.35056  3.1144 8.64112  3.33424 8.92208  L 3.33664 8.9252  C 4.05744 9.8484  4.67992 10.64568  8.2784 10.8652  L 8.37344 10.87096  L 8.31808 10.79352  C 8.11456 10.50904  7.97488 10.30536  7.90304 10.18832  C 7.72968 9.90352  7.66248 9.43032  7.86968 9.07744  C 8.02888 8.80528  8.324 8.64928  8.67952 8.64928  C 9.11176 8.64928  9.66592 8.8728  10.37352 9.33264  L 10.38472 9.34  L 10.38712 9.34  L 10.39192 9.3424  C 10.79288 9.55344  12.20072 10.26176  13.48 10.51696  C 13.7016 10.56112  13.8624 10.75232  13.8624 10.97168  L 13.8624 13.39168  C 13.8624 13.64768  13.64752 13.856  13.38344 13.856  L 7.8456 13.856  Z M 1.42552 8.43776  C 1.23584 8.43776  1.09712 8.59904  1.07952 8.83952  C 1.07296 8.86896  1.03952 9.04192  1.11056 9.22864  L 1.11152 9.23104  C 2.13344 11.52512  4.25984 12.44656  5.4364 12.7916  L 5.43816 12.79208  C 5.97472 12.92592  6.94424 12.92752  6.98528 12.92752  L 12.90448 12.92752  L 12.90448 11.33968  L 12.87048 11.33088  C 11.69512 11.02864  10.53544 10.46632  10.09128 10.23856  C 10.0177298338278 10.2010051589709  9.94465732949781 10.1625220846103  9.87208 10.12312  C 9.59808 9.94608  9.2372 9.79688  9.21312 9.78704  C 9.1388 9.75344  9.07632 9.73648  9.02752 9.73648  C 8.9568 9.73648  8.9272 9.77248  8.91592 9.79408  C 8.88456 9.8536  8.90992 9.94376  8.99112 10.06224  C 8.99616 10.0696  9.50008 10.8092  9.71928 11.1024  C 9.8268 11.24632  9.84056 11.43336  9.75528 11.59056  C 9.69344 11.70416  9.57288 11.83944  9.3496 11.83944  C 9.33968 11.83944  9.3296 11.8392  9.31936 11.83864  C 4.30864 11.70776  3.4656 10.62872  2.57296 9.4864  C 2.36528 9.22008  2.16952 8.9692  1.90944 8.72472  C 1.644 8.47528  1.64152 8.47528  1.61792 8.47528  L 1.58896 8.47528  C 1.53376 8.45048  1.47856 8.43776  1.42552 8.43776  Z " fill-rule="nonzero" fill="#333333" stroke="none" transform="matrix(1 0 0 1 27 578 )" />
  </g>
</svg>