<?xml version="1.0" encoding="utf-8"?>
<svg version="1.1" xmlns:xlink="http://www.w3.org/1999/xlink" width="15px" height="15px" xmlns="http://www.w3.org/2000/svg">
  <g transform="matrix(1 0 0 1 -27 -338 )">
    <path d="M 12.1648706896552 0.64493534482758  C 12.8372844827586 0.851831896551736  13.3723060344828 1.09913793103448  13.7570043103448 1.37877155172413  C 14.3696120689655 1.82327586206895  14.4989224137931 2.28879310344828  14.4989224137931 2.60237068965517  C 14.4989224137931 2.91594827586206  14.3696120689655 3.37984913793104  13.7570043103448 3.82596982758622  C 13.3723060344828 4.10560344827586  12.8356681034483 4.35290948275861  12.1648706896552 4.55980603448276  C 10.8475215517241 4.96390086206897  9.10506465517241 5.18696120689655  7.25915948275862 5.18696120689655  C 5.41325431034483 5.18696120689655  3.6707974137931 4.96390086206897  2.35344827586207 4.55818965517241  C 1.68103448275862 4.35129310344829  1.14439655172414 4.10560344827586  0.759698275862069 3.82435344827587  C 0.14709051724138 3.37823275862069  0.0177801724137935 2.91271551724139  0.0177801724137935 2.60075431034482  C 0.0177801724137935 2.28879310344828  0.14709051724138 1.82327586206895  0.759698275862069 1.3771551724138  C 1.14439655172414 1.09752155172413  1.68103448275862 0.850215517241385  2.35183189655172 0.64331896551723  C 3.6707974137931 0.239224137931023  5.41325431034483 0.0161637931034483  7.25915948275862 0.0161637931034483  C 9.10506465517242 0.0161637931034483  10.8475215517241 0.239224137931023  12.1648706896552 0.64493534482758  Z M 5.19019396551724 9.82758620689655  L 6.74191810344827 9.82758620689729  L 6.74192017232578 8.80926724137931  L 5.19019396551724 8.80926724137931  C 4.90409482758621 8.80926724137931  4.6729525862069 8.57812500000001  4.6729525862069 8.29202586206897  C 4.6729525862069 8.00592672413792  4.90409482758621 7.77478448275862  5.19019396551724 7.77478448275862  L 6.01059772025491 7.77478448275862  L 4.82165948275862 6.58674568965517  C 4.61961206896552 6.38469827586207  4.61961206896552 6.05657327586208  4.82165948275862 5.85452586206898  C 5.02370689655172 5.65247844827587  5.35183189655172 5.65247844827587  5.55387931034483 5.85452586206898  L 7.25835127120497 7.55899782292911  L 8.96443965517241 5.85290948275863  C 9.16648706896552 5.65086206896552  9.49461206896551 5.65086206896552  9.69665948275862 5.85290948275863  C 9.89870689655172 6.05495689655173  9.89870689655172 6.38308189655172  9.69665948275862 6.58512931034482  L 8.50700450853742 7.77478428456603  L 9.328125 7.77478448275862  C 9.61422413793104 7.77478448275862  9.84536637931034 8.00592672413792  9.84536637931034 8.29202586206897  C 9.84536637931034 8.57812500000001  9.61422413793104 8.80926724137931  9.328125 8.80926724137931  L 7.77640086206896 8.80926724144446  L 7.77639880415869 9.82758620689655  L 9.328125 9.82758620689655  C 9.61422413793104 9.82758620689655  9.84536637931034 10.0587284482759  9.84536637931034 10.3448275862069  C 9.84536637931034 10.6309267241379  9.61422413793104 10.8620689655172  9.328125 10.8620689655172  L 7.77640086206896 10.8620689660535  L 7.77640086206896 12.4283405172414  C 7.77640086206896 12.7128232758621  7.54525862068966 12.9439655172414  7.25915948275862 12.9439655172414  C 6.97306034482759 12.9439655172414  6.74191810344827 12.7128232758621  6.74191810344827 12.426724137931  L 6.74192016135854 10.8620689655172  L 5.19019396551724 10.8620689655172  C 4.90409482758621 10.8620689655172  4.6729525862069 10.6309267241379  4.6729525862069 10.3448275862069  C 4.6729525862069 10.0587284482759  4.90409482758621 9.82758620689655  5.19019396551724 9.82758620689655  Z M 14.3566810344828 8.29849137931034  C 13.9024784482759 9.1050646551724  12.3927801724138 9.77424568965519  10.3626077586207 10.1185344827586  L 10.3626077586207 11.1449353448276  C 12.8098060344828 10.729525862069  14.5005387931034 9.8405172413793  14.5005387931034 8.81088362068966  C 14.5005387931034 8.63469827586208  14.4504310344828 8.46336206896552  14.3566810344828 8.29849137931034  Z M 4.15409482758621 10.120150862069  C 2.12068965517241 9.77747844827586  0.60614224137931 9.10668103448275  0.148706896551725 8.29849137931034  C 0.0549568965517238 8.46497844827587  0.00484913793103375 8.6363146551724  0.00484913793103375 8.81088362068966  C 0.00484913793103375 9.84213362068965  1.7020474137931 10.7327586206897  4.15409482758621 11.1465517241379  L 4.15409482758621 10.120150862069  Z M 10.3626077586207 8.03825431034482  C 12.8098060344828 7.62284482758621  14.5021551724138 6.73383620689656  14.5021551724138 5.70420258620689  C 14.5021551724138 5.52801724137931  14.4520474137931 5.35668103448275  14.3582974137931 5.1918103448276  C 13.9024784482759 5.99838362068966  12.3927801724138 6.66918103448276  10.3626077586207 7.01185344827585  L 10.3626077586207 8.03825431034482  Z M 4.15409482758621 7.0134698275862  C 2.12068965517241 6.67079741379312  0.60614224137931 6.00000000000001  0.148706896551725 5.1918103448276  C 0.0549568965517238 5.3582974137931  0.00484913793103375 5.52963362068966  0.00484913793103375 5.70420258620689  C 0.00484913793103375 6.73545258620691  1.7020474137931 7.62607758620689  4.15409482758621 8.03987068965517  L 4.15409482758621 7.0134698275862  Z M 0.148706896551723 11.395474137931  C 0.0549568965517238 11.5619612068965  0.00484913793103375 11.7332974137931  0.00484913793103375 11.9078663793104  C 0.00484913793103375 13.3351293103448  3.25053879310345 14.4908405172414  7.25269396551724 14.4908405172414  C 11.254849137931 14.4908405172414  14.5021551724138 13.3351293103448  14.5021551724138 11.9094827586207  C 14.5021551724138 11.7332974137931  14.4520474137931 11.5619612068965  14.3582974137931 11.3970905172414  C 13.6907327586207 12.5770474137931  10.7634698275862 13.4660560344828  7.25431034482759 13.4660560344828  C 3.74353448275862 13.4660560344828  0.816271551724138 12.5770474137931  0.148706896551723 11.395474137931  Z M 11.8609913793103 3.57058189655172  C 12.4154094827586 3.39924568965516  12.8615301724138 3.19881465517241  13.1492456896552 2.98868534482758  C 13.3820043103448 2.81896551724137  13.4644396551724 2.67834051724139  13.4644396551724 2.60237068965517  C 13.4644396551724 2.52640086206895  13.3820043103448 2.38415948275862  13.1492456896552 2.21605603448276  C 12.8615301724138 2.00592672413794  12.4154094827586 1.80549568965518  11.8609913793103 1.63415948275863  C 10.6390086206897 1.25754310344826  9.00484913793103 1.05064655172414  7.25915948275862 1.05064655172414  C 5.51346982758621 1.05064655172414  3.87931034482759 1.25754310344826  2.6573275862069 1.63415948275863  C 2.10290948275862 1.80549568965518  1.65678879310345 2.00592672413794  1.36907327586207 2.21605603448276  C 1.13631465517241 2.38577586206897  1.05387931034483 2.52640086206895  1.05387931034483 2.60237068965517  C 1.05387931034483 2.67834051724139  1.13631465517241 2.82058189655172  1.36907327586207 2.98868534482758  C 1.65678879310345 3.19881465517241  2.10290948275862 3.39924568965516  2.6573275862069 3.57058189655172  C 3.87931034482759 3.94719827586208  5.51346982758621 4.15409482758621  7.25915948275862 4.15409482758621  C 9.00484913793103 4.15409482758621  10.6390086206897 3.94719827586208  11.8609913793103 3.57058189655172  Z M 7.47413787872264 7.77478448275862  L 7.25835127120497 7.55899782292911  L 7.04256476201681 7.77478437591421  L 7.47413787872264 7.77478448275862  Z " fill-rule="nonzero" fill="#333333" stroke="none" transform="matrix(1 0 0 1 27 338 )" />
  </g>
</svg>