<?xml version="1.0" encoding="utf-8"?>
<svg version="1.1" xmlns:xlink="http://www.w3.org/1999/xlink" width="14px" height="14px" xmlns="http://www.w3.org/2000/svg">
  <g transform="matrix(1 0 0 1 -27 -538 )">
    <path d="M 7.45766274166667 7.98664136290323  L 7.45766274166667 12.0636963971774  C 7.45766274166667 12.9715977237903  6.6784941125 13.7137305544355  5.72890979791667 13.7137305544355  C 4.77844705625 13.7137305544355  3.99927842708333 12.9715977237903  3.99927842708333 12.0645464879032  C 3.99927842708333 11.8044174556452  4.23030587291667 11.5799924032258  4.51052548333333 11.5799924032258  C 4.79162352083333 11.5799924032258  5.02265096666667 11.7925161290323  5.02265098125 12.0645464879032  C 5.04142881657278 12.4287820712293  5.35206490386133 12.7147735119845  5.72890980520833 12.7147735119845  C 6.10575470655533 12.7147735119845  6.41639079384389 12.4287820712293  6.43516862916667 12.0645464879032  L 6.43516862916667 7.98579127217742  L 0.86854901875 7.98579127217742  C 0.866200445635753 7.98582303639545  0.863851671839941 7.98583891908605  0.861502869374012 7.98583891908605  C 0.584724599600355 7.98583891908605  0.359685900912037 7.76992729519288  0.3573019625 7.50208729233871  C 0.3573019625 5.81719924596774  1.05126274166667 4.2377229717742  2.29336470416667 3.04759012701613  C 3.36855085986587 2.00743681258447  4.78666240189089 1.36517433411242  6.30076862916667 1.23263756451613  L 6.43516862916667 1.22073623790323  L 6.43516862916667 0.514307401209677  C 6.43516862916667 0.255028459677419  6.666196075 0.0314535120967741  6.94641568541667 0.0314535120967741  C 7.22663529583333 0.0314535120967741  7.45766274166667 0.243977237903226  7.45766274166667 0.514307401209677  L 7.45766274166667 1.22158634274194  L 7.59206274166667 1.23348766935484  C 9.1048610158532 1.36886782736698  10.521466626932 2.01072966586013  11.5977097979167 3.04844023185484  C 12.8406901875 4.2385730625  13.53465098125 5.81804933669355  13.53465098125 7.50293738306452  C 13.5279811154904 7.77166382041234  13.3011677197785 7.98625780358615  13.023403925 7.98664136290323  L 7.45678431458333 7.98664136290323  Z M 1.40527059166667 7  L 12.4875607791667 7  L 12.4629647041667 6.84326376209677  C 12.1221333333333 4.17991652016129  9.74685490625 2.17624288508065  6.94641568541667 2.17624288508065  C 4.1450980375 2.17624288508065  1.7706980375 4.19096774193548  1.42986666666667 6.85516508870968  L 1.40527059166667 7  Z " fill-rule="nonzero" fill="#333333" stroke="none" transform="matrix(1 0 0 1 27 538 )" />
  </g>
</svg>