<?xml version="1.0" encoding="utf-8"?>
<svg version="1.1" xmlns:xlink="http://www.w3.org/1999/xlink" width="170px" height="170px" xmlns="http://www.w3.org/2000/svg">
  <g transform="matrix(1 0 0 1 0 -160 )">
    <path d="M 85 160  C 132.6 160  170 197.4  170 245  C 170 292.6  132.6 330  85 330  C 37.4 330  0 292.6  0 245  C 0 197.4  37.4 160  85 160  Z " fill-rule="nonzero" fill="#ffffff" stroke="none" />
    <path d="M 85 160.5  C 132.32 160.5  169.5 197.68  169.5 245  C 169.5 292.32  132.32 329.5  85 329.5  C 37.68 329.5  0.5 292.32  0.5 245  C 0.5 197.68  37.68 160.5  85 160.5  Z " stroke-width="1" stroke="#797979" fill="none" />
  </g>
</svg>